<svg xmlns="http://www.w3.org/2000/svg" xmlns:xlink="http://www.w3.org/1999/xlink" width="1080" zoomAndPan="magnify" viewBox="0 0 810 809.999993" height="1080" preserveAspectRatio="xMidYMid meet" version="1.0"><defs><clipPath id="94049dbd3a"><path d="M 239.015625 52 L 571.265625 52 L 571.265625 758 L 239.015625 758 Z M 239.015625 52 " clip-rule="nonzero"/></clipPath><clipPath id="5840774e0b"><path d="M 239.015625 550 L 281 550 L 281 592 L 239.015625 592 Z M 239.015625 550 " clip-rule="nonzero"/></clipPath><clipPath id="deaa37a2d0"><path d="M 239.015625 176 L 281 176 L 281 302 L 239.015625 302 Z M 239.015625 176 " clip-rule="nonzero"/></clipPath><clipPath id="a76f31ba6f"><path d="M 404 550 L 571.265625 550 L 571.265625 758 L 404 758 Z M 404 550 " clip-rule="nonzero"/></clipPath><clipPath id="e775928ad5"><path d="M 529 218 L 571.265625 218 L 571.265625 426 L 529 426 Z M 529 218 " clip-rule="nonzero"/></clipPath></defs><g clip-path="url(#94049dbd3a)"><path fill="#a86000" d="M 321.96875 135.269531 L 321.96875 301.199219 L 363.476562 301.199219 L 363.476562 52.269531 L 446.488281 52.269531 L 446.488281 425.675781 L 487.996094 425.675781 L 487.996094 218.234375 L 571.042969 218.234375 L 571.042969 425.675781 L 529.535156 425.675781 L 529.535156 467.160156 L 446.488281 467.160156 L 446.488281 550.15625 L 571.042969 550.15625 L 571.042969 591.636719 L 529.535156 591.636719 L 529.535156 716.085938 L 487.996094 716.085938 L 487.996094 757.597656 L 321.96875 757.597656 L 321.96875 716.085938 L 280.429688 716.085938 L 280.429688 591.636719 L 238.921875 591.636719 L 238.921875 550.15625 L 363.476562 550.15625 L 363.476562 342.710938 L 280.429688 342.710938 L 280.429688 301.199219 L 238.921875 301.199219 L 238.921875 135.269531 Z M 321.96875 135.269531 " fill-opacity="1" fill-rule="nonzero"/></g><g clip-path="url(#5840774e0b)"><path fill="#a87d31" d="M 238.921875 550.15625 L 280.429688 550.15625 L 280.429688 591.636719 L 238.921875 591.636719 Z M 238.921875 550.15625 " fill-opacity="1" fill-rule="nonzero"/></g><g clip-path="url(#deaa37a2d0)"><path fill="#7ebc37" d="M 280.429688 218.234375 L 280.429688 301.199219 L 238.921875 301.199219 L 238.921875 176.75 L 280.429688 176.75 Z M 280.429688 218.234375 " fill-opacity="1" fill-rule="nonzero"/></g><path fill="#a87d31" d="M 321.96875 633.121094 L 321.96875 716.085938 L 280.429688 716.085938 L 280.429688 591.636719 L 321.96875 591.636719 Z M 321.96875 633.121094 " fill-opacity="1" fill-rule="nonzero"/><path fill="#55990d" d="M 280.429688 218.234375 L 280.429688 135.269531 L 321.96875 135.269531 L 321.96875 301.199219 L 404.980469 301.199219 L 404.980469 52.269531 L 446.488281 52.269531 L 446.488281 425.675781 L 529.535156 425.675781 L 529.535156 467.160156 L 446.488281 467.160156 L 446.488281 550.15625 L 404.980469 550.15625 L 404.980469 342.710938 L 280.429688 342.710938 Z M 280.429688 218.234375 " fill-opacity="1" fill-rule="nonzero"/><path fill="#a87d31" d="M 321.96875 716.085938 L 363.476562 716.085938 L 363.476562 757.566406 L 321.96875 757.566406 Z M 321.96875 716.085938 " fill-opacity="1" fill-rule="nonzero"/><path fill="#7ebc37" d="M 404.980469 384.195312 L 404.980469 550.15625 L 363.476562 550.15625 L 363.476562 342.710938 L 404.980469 342.710938 Z M 404.980469 384.195312 " fill-opacity="1" fill-rule="nonzero"/><path fill="#7ebc37" d="M 404.980469 135.269531 L 404.980469 301.199219 L 363.476562 301.199219 L 363.476562 93.785156 L 404.980469 93.785156 Z M 404.980469 135.269531 " fill-opacity="1" fill-rule="nonzero"/><g clip-path="url(#a76f31ba6f)"><path fill="#a86000" d="M 446.488281 716.085938 L 446.488281 591.636719 L 487.996094 591.636719 L 487.996094 550.15625 L 571.042969 550.15625 L 571.042969 591.636719 L 529.535156 591.636719 L 529.535156 716.085938 L 487.996094 716.085938 L 487.996094 757.597656 L 404.980469 757.597656 L 404.980469 716.085938 Z M 446.488281 716.085938 " fill-opacity="1" fill-rule="nonzero"/></g><path fill="#efa118" d="M 446.488281 550.15625 L 487.996094 550.15625 L 487.996094 591.636719 L 446.488281 591.636719 L 446.488281 716.085938 L 404.980469 716.085938 L 404.980469 757.597656 L 363.476562 757.597656 L 363.476562 716.085938 L 321.96875 716.085938 L 321.96875 591.636719 L 280.429688 591.636719 L 280.429688 550.15625 Z M 446.488281 550.15625 " fill-opacity="1" fill-rule="nonzero"/><path fill="#7ebc37" d="M 487.996094 384.195312 L 487.996094 259.714844 L 529.535156 259.714844 L 529.535156 425.675781 L 487.996094 425.675781 Z M 487.996094 384.195312 " fill-opacity="1" fill-rule="nonzero"/><g clip-path="url(#e775928ad5)"><path fill="#55990d" d="M 529.535156 342.710938 L 529.535156 218.234375 L 571.042969 218.234375 L 571.042969 425.675781 L 529.535156 425.675781 Z M 529.535156 342.710938 " fill-opacity="1" fill-rule="nonzero"/></g></svg>